<mxfile host="app.diagrams.net" modified="2023-07-25T12:35:54.573Z" agent="Mozilla/5.0 (Windows NT 10.0; Win64; x64) AppleWebKit/537.36 (KHTML, like Gecko) Chrome/114.0.0.0 Safari/537.36" etag="_0Es4lmC0VqbBvc78uii" version="21.6.5" type="github">
  <diagram name="第 1 页" id="PoAH54VIX8yg4YoPrlTf">
    <mxGraphModel dx="448" dy="683" grid="1" gridSize="10" guides="1" tooltips="1" connect="1" arrows="1" fold="1" page="1" pageScale="1" pageWidth="827" pageHeight="1169" math="0" shadow="0">
      <root>
        <mxCell id="0" />
        <mxCell id="1" parent="0" />
        <mxCell id="eVZygasstS71PHHdiY3Z-1" value="客户机" style="rounded=0;whiteSpace=wrap;html=1;" vertex="1" parent="1">
          <mxGeometry y="210" width="110" height="30" as="geometry" />
        </mxCell>
        <mxCell id="eVZygasstS71PHHdiY3Z-2" value="客户机" style="rounded=0;whiteSpace=wrap;html=1;" vertex="1" parent="1">
          <mxGeometry x="135" y="210" width="110" height="30" as="geometry" />
        </mxCell>
        <mxCell id="eVZygasstS71PHHdiY3Z-3" value="容器运行时" style="rounded=0;whiteSpace=wrap;html=1;" vertex="1" parent="1">
          <mxGeometry x="270" y="210" width="110" height="30" as="geometry" />
        </mxCell>
        <mxCell id="eVZygasstS71PHHdiY3Z-4" value="" style="rounded=0;whiteSpace=wrap;html=1;" vertex="1" parent="1">
          <mxGeometry y="256" width="110" height="120" as="geometry" />
        </mxCell>
        <mxCell id="eVZygasstS71PHHdiY3Z-6" value="虚拟MMU" style="rounded=0;whiteSpace=wrap;html=1;" vertex="1" parent="1">
          <mxGeometry x="15" y="296" width="80" height="30" as="geometry" />
        </mxCell>
        <mxCell id="eVZygasstS71PHHdiY3Z-7" value="虚拟化软件" style="text;html=1;align=center;verticalAlign=middle;resizable=0;points=[];autosize=1;strokeColor=none;fillColor=none;" vertex="1" parent="1">
          <mxGeometry x="15" y="256" width="80" height="30" as="geometry" />
        </mxCell>
        <mxCell id="eVZygasstS71PHHdiY3Z-8" value="虚拟页表" style="rounded=0;whiteSpace=wrap;html=1;" vertex="1" parent="1">
          <mxGeometry x="15" y="336" width="80" height="30" as="geometry" />
        </mxCell>
        <mxCell id="eVZygasstS71PHHdiY3Z-9" value="宿主机" style="rounded=0;whiteSpace=wrap;html=1;" vertex="1" parent="1">
          <mxGeometry y="390" width="110" height="30" as="geometry" />
        </mxCell>
        <mxCell id="eVZygasstS71PHHdiY3Z-11" value="" style="rounded=0;whiteSpace=wrap;html=1;" vertex="1" parent="1">
          <mxGeometry x="135" y="256" width="110" height="120" as="geometry" />
        </mxCell>
        <mxCell id="eVZygasstS71PHHdiY3Z-12" value="虚拟化接口" style="rounded=0;whiteSpace=wrap;html=1;" vertex="1" parent="1">
          <mxGeometry x="150" y="296" width="80" height="30" as="geometry" />
        </mxCell>
        <mxCell id="eVZygasstS71PHHdiY3Z-13" value="虚拟化软件" style="text;html=1;align=center;verticalAlign=middle;resizable=0;points=[];autosize=1;strokeColor=none;fillColor=none;" vertex="1" parent="1">
          <mxGeometry x="150" y="256" width="80" height="30" as="geometry" />
        </mxCell>
        <mxCell id="eVZygasstS71PHHdiY3Z-14" value="虚拟页表" style="rounded=0;whiteSpace=wrap;html=1;" vertex="1" parent="1">
          <mxGeometry x="150" y="336" width="80" height="30" as="geometry" />
        </mxCell>
        <mxCell id="eVZygasstS71PHHdiY3Z-15" value="宿主机" style="rounded=0;whiteSpace=wrap;html=1;" vertex="1" parent="1">
          <mxGeometry x="135" y="390" width="110" height="30" as="geometry" />
        </mxCell>
        <mxCell id="eVZygasstS71PHHdiY3Z-16" value="" style="rounded=0;whiteSpace=wrap;html=1;" vertex="1" parent="1">
          <mxGeometry x="270" y="256" width="110" height="120" as="geometry" />
        </mxCell>
        <mxCell id="eVZygasstS71PHHdiY3Z-17" value="Cgroup" style="rounded=0;whiteSpace=wrap;html=1;" vertex="1" parent="1">
          <mxGeometry x="285" y="286" width="80" height="30" as="geometry" />
        </mxCell>
        <mxCell id="eVZygasstS71PHHdiY3Z-18" value="宿主机操作系统" style="text;html=1;align=center;verticalAlign=middle;resizable=0;points=[];autosize=1;strokeColor=none;fillColor=none;" vertex="1" parent="1">
          <mxGeometry x="270" y="256" width="110" height="30" as="geometry" />
        </mxCell>
        <mxCell id="eVZygasstS71PHHdiY3Z-19" value="Namespace" style="rounded=0;whiteSpace=wrap;html=1;" vertex="1" parent="1">
          <mxGeometry x="285" y="336" width="80" height="30" as="geometry" />
        </mxCell>
        <mxCell id="eVZygasstS71PHHdiY3Z-20" style="edgeStyle=orthogonalEdgeStyle;rounded=0;orthogonalLoop=1;jettySize=auto;html=1;exitX=0.5;exitY=1;exitDx=0;exitDy=0;" edge="1" parent="1" source="eVZygasstS71PHHdiY3Z-19" target="eVZygasstS71PHHdiY3Z-19">
          <mxGeometry relative="1" as="geometry" />
        </mxCell>
        <mxCell id="eVZygasstS71PHHdiY3Z-21" value="（1）全虚拟化" style="text;html=1;align=center;verticalAlign=middle;resizable=0;points=[];autosize=1;strokeColor=none;fillColor=none;" vertex="1" parent="1">
          <mxGeometry x="5" y="430" width="100" height="30" as="geometry" />
        </mxCell>
        <mxCell id="eVZygasstS71PHHdiY3Z-22" value="（2）半虚拟化" style="text;html=1;align=center;verticalAlign=middle;resizable=0;points=[];autosize=1;strokeColor=none;fillColor=none;" vertex="1" parent="1">
          <mxGeometry x="140" y="430" width="100" height="30" as="geometry" />
        </mxCell>
        <mxCell id="eVZygasstS71PHHdiY3Z-23" value="（3）容器虚拟化" style="text;html=1;align=center;verticalAlign=middle;resizable=0;points=[];autosize=1;strokeColor=none;fillColor=none;" vertex="1" parent="1">
          <mxGeometry x="270" y="430" width="110" height="30" as="geometry" />
        </mxCell>
      </root>
    </mxGraphModel>
  </diagram>
</mxfile>
